<svg xmlns="http://www.w3.org/2000/svg" viewBox="0 0 332.5 332.86"><defs><style>.cls-1{fill:#fff;}</style></defs><title>Asset 1</title><g id="Layer_2" data-name="Layer 2"><g id="Layer_2-2" data-name="Layer 2"><path class="cls-1" d="M294.75,26.86h-257A37.86,37.86,0,0,0,0,64.61v230.5a37.86,37.86,0,0,0,37.75,37.75h257a37.86,37.86,0,0,0,37.75-37.75V64.61A37.86,37.86,0,0,0,294.75,26.86Zm9.75,269.5a10.52,10.52,0,0,1-10.5,10.5H35.81a10.53,10.53,0,0,1-10.5-10.5v-233a10.54,10.54,0,0,1,10.5-10.5H294a10.53,10.53,0,0,1,10.5,10.5Z"/><rect class="cls-1" x="15.5" y="96.86" width="299" height="26"/><rect class="cls-1" x="250.1" width="26.65" height="79.43" rx="3.84"/><rect class="cls-1" x="53.83" width="26.65" height="79.43" rx="3.84"/><rect class="cls-1" x="48.71" y="149.64" width="26.31" height="25.78" rx="2.18"/><rect class="cls-1" x="100.47" y="149.64" width="26.31" height="25.78" rx="2.18"/><rect class="cls-1" x="152.23" y="149.64" width="26.31" height="25.78" rx="2.18"/><rect class="cls-1" x="203.98" y="149.64" width="26.31" height="25.78" rx="2.18"/><rect class="cls-1" x="255.74" y="149.64" width="26.31" height="25.78" rx="2.18"/><rect class="cls-1" x="48.71" y="201.4" width="26.31" height="25.78" rx="2.18"/><rect class="cls-1" x="100.47" y="201.4" width="26.31" height="25.78" rx="2.18"/><rect class="cls-1" x="152.23" y="201.4" width="26.31" height="25.78" rx="2.18"/><rect class="cls-1" x="203.98" y="201.4" width="26.31" height="25.78" rx="2.18"/><rect class="cls-1" x="255.74" y="201.4" width="26.31" height="25.78" rx="2.18"/><rect class="cls-1" x="48.71" y="253.67" width="26.31" height="25.78" rx="2.18"/><rect class="cls-1" x="100.47" y="253.67" width="26.31" height="25.78" rx="2.18"/><rect class="cls-1" x="152.23" y="253.67" width="26.31" height="25.78" rx="2.18"/><rect class="cls-1" x="203.98" y="253.67" width="26.31" height="25.78" rx="2.18"/></g></g></svg>