<svg xmlns="http://www.w3.org/2000/svg" xmlns:xlink="http://www.w3.org/1999/xlink" viewBox="0 0 566.05 324.87"><defs><style>.cls-1{mask:url(#mask);filter:url(#luminosity-noclip-2);}.cls-2{mix-blend-mode:multiply;fill:url(#linear-gradient);}.cls-3{fill:url(#linear-gradient-2);}.cls-4{fill:url(#linear-gradient-3);}.cls-5{fill:url(#linear-gradient-4);}.cls-6{fill:url(#linear-gradient-5);}.cls-7{fill:url(#linear-gradient-6);}.cls-8{fill:url(#linear-gradient-7);}.cls-9{fill:url(#linear-gradient-8);}.cls-10{fill:#1b1b1b;}.cls-11{fill:url(#linear-gradient-9);}.cls-12{fill:url(#linear-gradient-10);}.cls-13{fill:#0b0b0b;}.cls-14{fill:url(#linear-gradient-11);}.cls-15{mask:url(#mask-2);}.cls-16{opacity:0.2;fill:url(#linear-gradient-12);}.cls-17{filter:url(#luminosity-noclip);}</style><filter id="luminosity-noclip" x="138.81" y="-8353.97" width="375.65" height="32766" filterUnits="userSpaceOnUse" color-interpolation-filters="sRGB"><feFlood flood-color="#fff" result="bg"/><feBlend in="SourceGraphic" in2="bg"/></filter><mask id="mask" x="138.81" y="-8353.97" width="375.65" height="32766" maskUnits="userSpaceOnUse"><g class="cls-17"/></mask><linearGradient id="linear-gradient" x1="326.64" y1="311.65" x2="326.64" gradientUnits="userSpaceOnUse"><stop offset="0.2"/><stop offset="0.5" stop-color="#020202"/><stop offset="0.6" stop-color="#090909"/><stop offset="0.68" stop-color="#141414"/><stop offset="0.74" stop-color="#252525"/><stop offset="0.8" stop-color="#3b3b3b"/><stop offset="0.84" stop-color="#575757"/><stop offset="0.89" stop-color="#777"/><stop offset="0.93" stop-color="#9d9d9d"/><stop offset="0.96" stop-color="#c8c8c8"/><stop offset="0.99" stop-color="#f6f6f6"/><stop offset="1" stop-color="#fff"/></linearGradient><linearGradient id="linear-gradient-2" x1="283.03" y1="324.87" x2="283.03" y2="315.5" gradientUnits="userSpaceOnUse"><stop offset="0" stop-color="#575453"/><stop offset="0.46" stop-color="#575453"/><stop offset="1" stop-color="#0b0b0b"/></linearGradient><linearGradient id="linear-gradient-3" x1="-6116.74" y1="314.33" x2="-5881.12" y2="314.33" gradientTransform="matrix(-1, 0, 0, 1, -5881.12, 0)" gradientUnits="userSpaceOnUse"><stop offset="0" stop-color="#777"/><stop offset="0" stop-color="#6c6c6c"/><stop offset="0" stop-color="#565656"/><stop offset="0.01" stop-color="#484848"/><stop offset="0.01" stop-color="#434343"/><stop offset="0.01" stop-color="#464646"/><stop offset="0.02" stop-color="#505050"/><stop offset="0.02" stop-color="#5d5d5d"/><stop offset="0.03" stop-color="#7d7d7d"/><stop offset="0.4" stop-color="#838383"/><stop offset="0.41" stop-color="#838383"/><stop offset="0.94" stop-color="#6a6a6a"/><stop offset="0.96" stop-color="#454545"/><stop offset="0.97" stop-color="#353535"/><stop offset="0.98" stop-color="#3a3a3a"/><stop offset="0.99" stop-color="#484848"/><stop offset="0.99" stop-color="#606060"/><stop offset="1" stop-color="#7d7d7d"/></linearGradient><linearGradient id="linear-gradient-4" x1="330.41" y1="314.33" x2="566.02" y2="314.33" gradientUnits="userSpaceOnUse"><stop offset="0" stop-color="#4f4f4f"/><stop offset="0" stop-color="#424242"/><stop offset="0" stop-color="#2c2c2c"/><stop offset="0.01" stop-color="#1e1e1e"/><stop offset="0.01" stop-color="#191919"/><stop offset="0.01" stop-color="#1c1c1c"/><stop offset="0.02" stop-color="#262626"/><stop offset="0.02" stop-color="#343434"/><stop offset="0.03" stop-color="#555"/><stop offset="0.4" stop-color="#5e5e5e"/><stop offset="0.41" stop-color="#5e5e5e"/><stop offset="0.94" stop-color="#424242"/><stop offset="0.96" stop-color="#1a1a1a"/><stop offset="0.97" stop-color="#0a0a0a"/><stop offset="0.98" stop-color="#0f0f0f"/><stop offset="0.99" stop-color="#1d1d1d"/><stop offset="0.99" stop-color="#353535"/><stop offset="1" stop-color="#555"/></linearGradient><linearGradient id="linear-gradient-5" x1="235.62" y1="314.46" x2="330.41" y2="314.46" gradientUnits="userSpaceOnUse"><stop offset="0" stop-color="#555"/><stop offset="0.06" stop-color="#424242"/><stop offset="0.51" stop-color="#555"/><stop offset="0.94" stop-color="#424242"/><stop offset="1" stop-color="#555"/></linearGradient><linearGradient id="linear-gradient-6" x1="-6116.74" y1="313.84" x2="-5881.12" y2="313.84" gradientTransform="matrix(-1, 0, 0, 1, -5881.12, 0)" gradientUnits="userSpaceOnUse"><stop offset="0" stop-color="#a8a8a8"/><stop offset="0" stop-color="#8c8c8c"/><stop offset="0" stop-color="#6d6d6d"/><stop offset="0.01" stop-color="#565656"/><stop offset="0.01" stop-color="#484848"/><stop offset="0.01" stop-color="#434343"/><stop offset="0.01" stop-color="#464646"/><stop offset="0.01" stop-color="#505050"/><stop offset="0.02" stop-color="#616161"/><stop offset="0.02" stop-color="#767676"/><stop offset="0.03" stop-color="#6c6968"/><stop offset="0.4" stop-color="#6c6968"/><stop offset="0.41" stop-color="#6c6968"/><stop offset="0.94" stop-color="#8d8d8d"/><stop offset="0.95" stop-color="#5f5f5f"/><stop offset="0.97" stop-color="#373737"/><stop offset="0.97" stop-color="#272727"/><stop offset="0.98" stop-color="#2c2c2c"/><stop offset="0.99" stop-color="#3a3a39"/><stop offset="0.99" stop-color="#525050"/><stop offset="1" stop-color="#6c6968"/></linearGradient><linearGradient id="linear-gradient-7" x1="283.04" y1="310.9" x2="283.04" y2="2.02" gradientUnits="userSpaceOnUse"><stop offset="0" stop-color="#504d4d"/><stop offset="0.09" stop-color="#585555"/><stop offset="0.24" stop-color="#6e6a6a"/><stop offset="0.41" stop-color="#918c8c"/><stop offset="0.45" stop-color="#999494"/><stop offset="1" stop-color="#7d7979"/></linearGradient><linearGradient id="linear-gradient-8" x1="283.03" y1="16.12" x2="283.03" gradientUnits="userSpaceOnUse"><stop offset="0" stop-color="#131313"/><stop offset="0.28" stop-color="#161616"/><stop offset="0.44" stop-color="#1e1e1e"/><stop offset="0.58" stop-color="#2c2c2c"/><stop offset="0.7" stop-color="#404040"/><stop offset="0.81" stop-color="#5b5b5b"/><stop offset="0.91" stop-color="#7a7a7a"/><stop offset="1" stop-color="#9f9f9f"/></linearGradient><linearGradient id="linear-gradient-9" x1="330.41" y1="313.84" x2="566.02" y2="313.84" gradientUnits="userSpaceOnUse"><stop offset="0" stop-color="#818181"/><stop offset="0" stop-color="#636363"/><stop offset="0" stop-color="#444"/><stop offset="0.01" stop-color="#2d2d2d"/><stop offset="0.01" stop-color="#1f1f1f"/><stop offset="0.01" stop-color="#1a1a1a"/><stop offset="0.01" stop-color="#1d1d1d"/><stop offset="0.01" stop-color="#272727"/><stop offset="0.02" stop-color="#383838"/><stop offset="0.02" stop-color="#4e4e4e"/><stop offset="0.03" stop-color="#6c6968"/><stop offset="0.4" stop-color="#6c6968"/><stop offset="0.41" stop-color="#6c6968"/><stop offset="0.94" stop-color="#686868"/><stop offset="0.95" stop-color="#434343"/><stop offset="0.96" stop-color="#1b1b1b"/><stop offset="0.97" stop-color="#0b0b0b"/><stop offset="0.98" stop-color="#101010"/><stop offset="0.98" stop-color="#1e1e1e"/><stop offset="0.99" stop-color="#363535"/><stop offset="1" stop-color="#585554"/><stop offset="1" stop-color="#6c6968"/></linearGradient><linearGradient id="linear-gradient-10" x1="235.62" y1="313.97" x2="330.41" y2="313.97" gradientUnits="userSpaceOnUse"><stop offset="0" stop-color="#848180"/><stop offset="0.06" stop-color="#6c6968"/><stop offset="0.51" stop-color="#848180"/><stop offset="0.94" stop-color="#6c6968"/><stop offset="1" stop-color="#848180"/></linearGradient><linearGradient id="linear-gradient-11" x1="98.29" y1="-27.89" x2="468.01" y2="341.83" gradientUnits="userSpaceOnUse"><stop offset="0" stop-color="#f1f2f3"/><stop offset="0.36" stop-color="#ecedee"/><stop offset="0.8" stop-color="#dedfdf"/><stop offset="1" stop-color="#d5d6d6"/></linearGradient><filter id="luminosity-noclip-2" x="138.81" y="0" width="375.65" height="311.65" filterUnits="userSpaceOnUse" color-interpolation-filters="sRGB"><feFlood flood-color="#fff" result="bg"/><feBlend in="SourceGraphic" in2="bg"/></filter><mask id="mask-2" x="138.81" y="0" width="375.65" height="311.65" maskUnits="userSpaceOnUse"><g class="cls-1"><path class="cls-2" d="M500.36,0H450.47L138.81,311.65H514.46V14.11A14.1,14.1,0,0,0,500.36,0Zm8.49,5.55,0,0,.06.06Z"/></g></mask><linearGradient id="linear-gradient-12" x1="326.64" y1="311.65" x2="326.64" gradientUnits="userSpaceOnUse"><stop offset="0.2" stop-color="#fff"/><stop offset="0.89" stop-color="#fff"/><stop offset="1" stop-color="#fff"/></linearGradient></defs><title>Asset 1</title><g id="Layer_2" data-name="Layer 2"><g id="Layer_1-2" data-name="Layer 1"><path class="cls-3" d="M0,315.5a206.39,206.39,0,0,0,61.48,9.37h443.1a206.37,206.37,0,0,0,61.47-9.37H0Z"/><path class="cls-4" d="M0,312.14v3.36H228.17a28.36,28.36,0,0,1,6.67.85l.78.16v-4.37Z"/><path class="cls-5" d="M566,312.14v3.36H337.85a28.36,28.36,0,0,0-6.67.85l-.77.16v-4.37Z"/><path class="cls-6" d="M330.41,312.14v4.37a16.31,16.31,0,0,1-3,.28H238.57a16.2,16.2,0,0,1-2.95-.28v-4.37Z"/><path class="cls-7" d="M0,311.65V315H228.17a28.88,28.88,0,0,1,6.67.84c.26.06.52.12.78.16v-4.37Z"/><path class="cls-8" d="M500.39,2H65.73a14.1,14.1,0,0,0-14.11,14.1V310.9h2V14.1a12.32,12.32,0,0,1,.14-1.83c0-.2.06-.4.1-.59s.09-.39.14-.59.1-.38.16-.57a12.13,12.13,0,0,1,2.4-4.3L57,5.79l.2-.21A12.72,12.72,0,0,1,59.2,4q.38-.24.75-.45c.26-.14.52-.27.79-.39h0l.54-.23h0a12,12,0,0,1,4.42-.83H500.36A12,12,0,0,1,506.1,3.5q.39.21.75.45c.33.21.64.43.95.67h0l.45.37h0c.22.19.43.39.63.59l.2.21a5.22,5.22,0,0,1,.39.43,12,12,0,0,1,2.95,7.88V310.9h2V15.23A14.1,14.1,0,0,0,500.39,2Z"/><path class="cls-9" d="M51.59,14.1A14.11,14.11,0,0,1,65.7,0H500.36a14.1,14.1,0,0,1,14.1,14.1v1.13A14.1,14.1,0,0,0,500.39,2H65.73a14.1,14.1,0,0,0-14.11,14.1Z"/><rect class="cls-10" x="53.64" y="300.99" width="458.78" height="9.9"/><path d="M512.42,14.1V301H53.64V14.1A12.07,12.07,0,0,1,65.7,2H500.36A12.07,12.07,0,0,1,512.42,14.1Z"/><path class="cls-11" d="M566,311.65V315H337.85a28.88,28.88,0,0,0-6.67.84c-.25.06-.51.12-.77.16v-4.37Z"/><path class="cls-12" d="M330.41,311.65V316a16.31,16.31,0,0,1-3,.28H238.57a16.2,16.2,0,0,1-2.95-.28v-4.37Z"/><polygon class="cls-13" points="514.46 310.9 514.46 311.65 512.42 311.65 512.42 311.65 53.64 311.65 53.64 311.65 51.62 311.65 51.62 310.9 514.46 310.9"/><rect class="cls-14" x="59.65" y="7.97" width="447" height="298" rx="4.75"/><g class="cls-15"><path class="cls-16" d="M500.36,0H450.47L138.81,311.65H514.46V14.11A14.1,14.1,0,0,0,500.36,0Zm8.49,5.55,0,0,.06.06Z"/></g></g></g></svg>