<svg xmlns="http://www.w3.org/2000/svg" xmlns:xlink="http://www.w3.org/1999/xlink" viewBox="0 0 1691.6 1502.8"><defs><style>.cls-1{fill:#fff;stroke-width:70px;stroke:url(#linear-gradient);}.cls-1,.cls-4{stroke-miterlimit:10;}.cls-2{fill:url(#linear-gradient-2);}.cls-3{fill:url(#linear-gradient-3);}.cls-4{stroke:#fff;stroke-width:10px;fill:url(#linear-gradient-4);}</style><linearGradient id="linear-gradient" y1="751.4" x2="1691.6" y2="751.4" gradientUnits="userSpaceOnUse"><stop offset="0" stop-color="#f939cf"/><stop offset="1" stop-color="#cf1e68"/></linearGradient><linearGradient id="linear-gradient-2" x1="434.3" y1="730.49" x2="1260.62" y2="730.49" gradientUnits="userSpaceOnUse"><stop offset="0" stop-color="#484fee"/><stop offset="1" stop-color="#3ba7fd"/></linearGradient><linearGradient id="linear-gradient-3" x1="639.2" y1="769.99" x2="1076.14" y2="769.99" gradientUnits="userSpaceOnUse"><stop offset="0" stop-color="#ed4c4c"/><stop offset="1" stop-color="#f9ac39"/></linearGradient><linearGradient id="linear-gradient-4" x1="-659.06" y1="-1494.53" x2="-590.57" y2="-1494.53" gradientTransform="translate(432.62 2361.83) rotate(39.71)" xlink:href="#linear-gradient-3"/></defs><title>Asset 2</title><g id="Layer_2" data-name="Layer 2"><g id="Layer_1-2" data-name="Layer 1"><path class="cls-1" d="M1198.11,35H493.49a106.2,106.2,0,0,0-92,53.09L49.23,698.31a106.17,106.17,0,0,0,0,106.18l352.3,610.22a106.2,106.2,0,0,0,92,53.09h704.62a106.19,106.19,0,0,0,92-53.09l352.31-610.22a106.22,106.22,0,0,0,0-106.18L1290.07,88.09A106.19,106.19,0,0,0,1198.11,35Z"/><path class="cls-2" d="M1260.62,391.83l-7.66-9.5c-5.87-10.54-18.13-20.9-28.33-24-4.66-1.39-107.28-1.9-379.54-2.83H472l-10.53,6.29A49.86,49.86,0,0,0,437.23,387c-2.76,6.22-2.93,27.3-2.93,342.57,0,267.71.11,322.43,1.87,338v7.89a30.09,30.09,0,0,0,30,30h765a29.09,29.09,0,0,0,29-29v-1h0v-309a29.51,29.51,0,0,0-.44-5l.89-121.41Zm-104.56,31.1c7.25-3.28,25.74-3.28,33.17-.17,8.29,3.46,11.23,10.36,11.23,25.74,0,22.63-4.67,28.67-23.15,30.06-24.53,2.07-32.13-4.84-32.13-28.5C1145.18,433.3,1147.94,426.39,1156.06,422.93Zm-91.23,4.5c5.36-6.22,8.13-6.91,25.4-6.56,12.45.34,13.83.68,18.83,5.69,4.67,4.66,5.36,6.74,6.23,18.14,1.55,23.67-4.84,32.82-24.37,34Q1071.22,480,1064,471c-2.94-3.8-3.46-7.08-3.46-21.42C1060.52,434,1060.86,432.27,1064.83,427.43ZM985.2,423.1c6.74-3.45,25.23-3.62,32.83-.34,9.67,4,11.4,8.29,11.4,27.13,0,14-.51,17.27-3.46,21.07-5,6.22-13.82,8.64-28,7.77-10.71-.86-12.78-1.56-17.63-6.39-5.17-5.36-5.35-5.7-5.35-21.6C975,432.6,976.91,427.07,985.2,423.1ZM493,532.22l353.85,1.84h353l1.84,167,.46,91.28v253.15H493V532.22Z"/><path class="cls-3" d="M857.67,725.71a155.27,155.27,0,0,1,152.75,127.41,33.17,33.17,0,0,0,32.6,27.37h0a33.12,33.12,0,0,0,32.59-39c-18.6-103.48-109.1-182-217.94-182S658.33,738,639.73,841.5a33.12,33.12,0,0,0,32.59,39h0a33.17,33.17,0,0,0,32.6-27.37A155.27,155.27,0,0,1,857.67,725.71Z"/><path class="cls-4" d="M888.15,865.47l51.5-75.19L979.55,732c4.6-6.71-1.19-11.52-6.95-5.76l-49.92,49.91-64.55,64.56a34.24,34.24,0,1,0,30,24.73Z"/></g></g></svg>