<svg xmlns="http://www.w3.org/2000/svg" xmlns:xlink="http://www.w3.org/1999/xlink" viewBox="0 0 1691.6 1502.8"><defs><style>.cls-1{fill:#fff;stroke-width:70px;stroke:url(#linear-gradient);}.cls-1,.cls-2,.cls-3,.cls-4{stroke-miterlimit:10;}.cls-2{fill:#3ba7fd;}.cls-2,.cls-3,.cls-4{stroke:#fff;stroke-width:15px;}.cls-3{fill:#b3b3b3;}.cls-4{fill:#ea764e;}</style><linearGradient id="linear-gradient" y1="751.4" x2="1691.6" y2="751.4" gradientUnits="userSpaceOnUse"><stop offset="0" stop-color="#f939cf"/><stop offset="1" stop-color="#cf1e68"/></linearGradient></defs><title>Asset 7</title><g id="Layer_2" data-name="Layer 2"><g id="Layer_1-2" data-name="Layer 1"><path class="cls-1" d="M1198.11,35H493.49a106.2,106.2,0,0,0-92,53.09L49.23,698.31a106.17,106.17,0,0,0,0,106.18l352.3,610.22a106.2,106.2,0,0,0,92,53.09h704.62a106.19,106.19,0,0,0,92-53.09l352.31-610.22a106.22,106.22,0,0,0,0-106.18L1290.07,88.09A106.19,106.19,0,0,0,1198.11,35Z"/><rect class="cls-2" x="384.89" y="434" width="951.75" height="112.27" rx="24.9"/><rect class="cls-2" x="384.89" y="1003" width="951.75" height="112.27" rx="24.9"/><rect class="cls-3" x="385.89" y="566.11" width="732.31" height="407.71" rx="33.8"/><rect class="cls-4" x="1133.98" y="566.11" width="202.66" height="407.71" rx="33.21"/></g></g></svg>