<svg xmlns="http://www.w3.org/2000/svg" xmlns:xlink="http://www.w3.org/1999/xlink" viewBox="0 0 1691.6 1502.8"><defs><style>.cls-1,.cls-3,.cls-9{fill:#fff;}.cls-1,.cls-3,.cls-4,.cls-5,.cls-6,.cls-7,.cls-8{stroke-miterlimit:10;}.cls-1{stroke-width:70px;stroke:url(#linear-gradient);}.cls-2{fill:url(#linear-gradient-2);}.cls-3,.cls-4,.cls-5,.cls-6,.cls-7,.cls-8{stroke:#fff;}.cls-3{stroke-width:100px;}.cls-4,.cls-5,.cls-6,.cls-7{stroke-width:10px;}.cls-4{fill:url(#linear-gradient-3);}.cls-5{fill:url(#linear-gradient-4);}.cls-6{fill:url(#linear-gradient-5);}.cls-7{fill:url(#linear-gradient-6);}.cls-8{stroke-width:20px;fill:url(#linear-gradient-7);}</style><linearGradient id="linear-gradient" y1="751.4" x2="1691.6" y2="751.4" gradientUnits="userSpaceOnUse"><stop offset="0" stop-color="#f939cf"/><stop offset="1" stop-color="#cf1e68"/></linearGradient><linearGradient id="linear-gradient-2" x1="422.35" y1="733.54" x2="1248.67" y2="733.54" gradientUnits="userSpaceOnUse"><stop offset="0" stop-color="#484fee"/><stop offset="1" stop-color="#3ba7fd"/></linearGradient><linearGradient id="linear-gradient-3" x1="-2776.91" y1="651.82" x2="-3168.42" y2="607.76" gradientTransform="matrix(1, 0, 0, -1, 3802.91, 1261.66)" xlink:href="#linear-gradient-2"/><linearGradient id="linear-gradient-4" x1="567.57" y1="948.68" x2="1111.41" y2="948.68" xlink:href="#linear-gradient-2"/><linearGradient id="linear-gradient-5" x1="592.69" y1="722.49" x2="983.42" y2="867.3" xlink:href="#linear-gradient-2"/><linearGradient id="linear-gradient-6" x1="980.2" y1="764.25" x2="1131.77" y2="820.43" xlink:href="#linear-gradient-2"/><linearGradient id="linear-gradient-7" x1="1016.22" y1="1022.75" x2="1292.22" y2="1022.75" gradientUnits="userSpaceOnUse"><stop offset="0" stop-color="#ed4c4c"/><stop offset="1" stop-color="#f9ac39"/></linearGradient></defs><title>Asset 1</title><g id="Layer_2" data-name="Layer 2"><g id="Layer_1-2" data-name="Layer 1"><path class="cls-1" d="M1198.11,35H493.49a106.2,106.2,0,0,0-92,53.09L49.23,698.31a106.17,106.17,0,0,0,0,106.18l352.3,610.22a106.2,106.2,0,0,0,92,53.09h704.62a106.19,106.19,0,0,0,92-53.09l352.31-610.22a106.22,106.22,0,0,0,0-106.18L1290.07,88.09A106.19,106.19,0,0,0,1198.11,35Z"/><path class="cls-2" d="M449.46,365a49.84,49.84,0,0,0-24.18,25.22c-2.76,6.22-2.93,27.3-2.93,342.57,0,326.33.17,336.18,3.27,344.47,4.33,11.4,14.51,22.11,25.74,27.12l9,3.58H736.4l276,.33-1.36-3.72c-2.71-7.62-1.52-25.74,2.2-31.83l3.39-5.92-4.74-3.89a43,43,0,0,1-7.62-9l-2.87-4.9H481V535.48l353.85,1.84h353.05l1.84,167,.84,168.25,6.55,1.55c6.38,1.56,21.48,14.68,23.16,20,.5,2.07,1.68,2.07,6.38.52a42.66,42.66,0,0,1,12.92-2.07h7.22l1.84-249.27V395.09l-7.66-9.5c-5.87-10.54-18.14-20.91-28.33-24-4.67-1.39-107.28-1.9-379.54-2.83H460Zm556.62,61c9.67,4,11.4,8.29,11.4,27.12,0,14-.52,17.28-3.46,21.08-5,6.22-13.83,8.64-28,7.77-10.71-.86-12.78-1.56-17.63-6.39-5.18-5.36-5.36-5.7-5.36-21.6,0-18.14,1.9-23.67,10.2-27.64C980,422.91,998.47,422.74,1006.08,426Zm91,3.8c4.67,4.66,5.36,6.73,6.22,18.14,1.55,23.66-4.83,32.81-24.36,34q-19.7,1.31-26.94-7.77c-2.94-3.8-3.46-7.08-3.46-21.42,0-15.54.34-17.27,4.31-22.11,5.36-6.22,8.12-6.91,25.4-6.56C1090.73,424.47,1092.1,424.81,1097.11,429.82Zm80.17-3.8c8.29,3.46,11.23,10.36,11.23,25.74,0,22.63-4.67,28.67-23.15,30.06-24.53,2.07-32.13-4.84-32.13-28.51,0-16.76,2.76-23.66,10.88-27.12C1151.36,422.91,1169.85,422.91,1177.28,426Z"/><circle class="cls-3" cx="1153.22" cy="1022.56" r="107.27"/><rect class="cls-4" x="567.57" y="598.75" width="543.84" height="64.15" rx="19.56" transform="translate(1678.99 1261.66) rotate(180)"/><rect class="cls-5" x="567.57" y="916.6" width="543.84" height="64.15" rx="22.06"/><rect class="cls-6" x="567.57" y="674.24" width="418.45" height="232.97" rx="19.68"/><rect class="cls-7" x="993.22" y="674.24" width="116.81" height="232.97" rx="19.68"/><circle class="cls-8" cx="1154.22" cy="1022.75" r="138"/><rect class="cls-9" x="1067.12" y="1028.25" width="98.46" height="30.73" rx="15.36" transform="translate(1064.92 -483.71) rotate(45)"/><rect class="cls-9" x="1108.74" y="1012.08" width="143.22" height="31.14" rx="15.57" transform="translate(2741.63 919.67) rotate(135)"/></g></g></svg>