<svg xmlns="http://www.w3.org/2000/svg" xmlns:xlink="http://www.w3.org/1999/xlink" viewBox="0 0 1691.6 1502.8"><defs><style>.cls-1,.cls-3,.cls-4{fill:#fff;stroke-miterlimit:10;}.cls-1{stroke-width:70px;stroke:url(#linear-gradient);}.cls-2{fill:url(#linear-gradient-2);}.cls-3,.cls-4{stroke:#fff;}.cls-3{stroke-width:100px;}.cls-4{stroke-width:30px;}.cls-5{fill:url(#linear-gradient-3);}.cls-6{fill:#f2f2f2;}.cls-7{fill:url(#linear-gradient-4);}.cls-8{fill:url(#linear-gradient-5);}.cls-9{fill:url(#linear-gradient-6);}.cls-10{fill:url(#linear-gradient-7);}.cls-11{fill:url(#linear-gradient-8);}</style><linearGradient id="linear-gradient" y1="751.4" x2="1691.6" y2="751.4" gradientUnits="userSpaceOnUse"><stop offset="0" stop-color="#f939cf"/><stop offset="1" stop-color="#cf1e68"/></linearGradient><linearGradient id="linear-gradient-2" x1="439.78" y1="755.79" x2="1266.1" y2="755.79" gradientUnits="userSpaceOnUse"><stop offset="0" stop-color="#484fee"/><stop offset="1" stop-color="#3ba7fd"/></linearGradient><linearGradient id="linear-gradient-3" x1="1081.71" y1="1251.82" x2="1343" y2="1251.82" gradientTransform="matrix(1, -0.05, 0.05, 1, -87.42, -105.08)" gradientUnits="userSpaceOnUse"><stop offset="0" stop-color="#ed4c4c"/><stop offset="1" stop-color="#f9ac39"/></linearGradient><linearGradient id="linear-gradient-4" x1="665.61" y1="906.74" x2="720.75" y2="906.74" xlink:href="#linear-gradient-2"/><linearGradient id="linear-gradient-5" x1="763.88" y1="893.9" x2="819.02" y2="893.9" xlink:href="#linear-gradient-2"/><linearGradient id="linear-gradient-6" x1="865.69" y1="879.29" x2="920.83" y2="879.29" xlink:href="#linear-gradient-2"/><linearGradient id="linear-gradient-7" x1="971.93" y1="858.49" x2="1027.06" y2="858.49" xlink:href="#linear-gradient-2"/><linearGradient id="linear-gradient-8" x1="784.11" y1="641.98" x2="967.8" y2="790.2" xlink:href="#linear-gradient-2"/></defs><title>Asset 3</title><g id="Layer_2" data-name="Layer 2"><g id="Layer_1-2" data-name="Layer 1"><path class="cls-1" d="M1198.11,35H493.49a106.2,106.2,0,0,0-92,53.09L49.23,698.31a106.17,106.17,0,0,0,0,106.18l352.3,610.22a106.2,106.2,0,0,0,92,53.09h704.62a106.19,106.19,0,0,0,92-53.09l352.31-610.22a106.22,106.22,0,0,0,0-106.18L1290.07,88.09A106.19,106.19,0,0,0,1198.11,35Z"/><path class="cls-2" d="M466.89,387.28a49.9,49.9,0,0,0-24.18,25.23c-2.76,6.21-2.93,27.3-2.93,342.57,0,326.33.17,336.17,3.28,344.47,4.32,11.4,14.5,22.11,25.74,27.12l9,3.57H753.83l276,.34-1.36-3.73c-2.71-7.61-1.51-25.73,2.2-31.82l3.39-5.92-4.74-3.89a42.65,42.65,0,0,1-7.61-9l-2.88-4.91H498.45V557.73l353.85,1.84h353l1.84,167,.84,168.25,6.55,1.55c6.38,1.56,21.48,14.68,23.16,20,.5,2.07,1.68,2.07,6.38.52,3-1.21,8.9-2.07,12.92-2.07h7.22l1.84-249.28V417.34l-7.66-9.51c-5.87-10.53-18.13-20.9-28.33-24-4.66-1.38-107.28-1.9-379.54-2.82H477.43Zm556.62,61c9.67,4,11.4,8.3,11.4,27.13,0,14-.51,17.27-3.46,21.08-5,6.22-13.82,8.63-28,7.77-10.71-.87-12.78-1.56-17.63-6.4-5.18-5.36-5.36-5.7-5.36-21.59,0-18.14,1.9-23.67,10.2-27.64C997.42,445.16,1015.91,445,1023.51,448.26Zm91,3.8c4.67,4.67,5.36,6.74,6.23,18.14,1.54,23.67-4.84,32.82-24.37,34q-19.7,1.29-26.94-7.77c-2.94-3.81-3.46-7.08-3.46-21.42,0-15.55.34-17.28,4.31-22.11,5.36-6.23,8.13-6.91,25.4-6.57C1108.16,446.71,1109.53,447.06,1114.54,452.06Zm80.17-3.8c8.29,3.46,11.23,10.37,11.23,25.74,0,22.64-4.67,28.68-23.15,30.07-24.53,2.07-32.13-4.84-32.13-28.51,0-16.76,2.76-23.67,10.88-27.13C1168.79,445.16,1187.28,445.16,1194.71,448.26Z"/><circle class="cls-3" cx="1170.65" cy="1044.81" r="107.27"/><rect class="cls-4" x="1212.06" y="1160.53" width="96.85" height="44.04" rx="12" transform="translate(1577.65 -516.46) rotate(57.4)"/><path class="cls-5" d="M1316.7,1228.94l-60.51-94.62c0-.07-.09-.12-.13-.18a123.27,123.27,0,1,0-36.82,24.15l60.35,94.38a6.1,6.1,0,0,0,8.39,1.84l26.87-17.18A6.09,6.09,0,0,0,1316.7,1228.94Z"/><circle class="cls-6" cx="1172.64" cy="1045.2" r="71.2"/><rect class="cls-7" x="665.61" y="824.85" width="55.14" height="163.78" rx="13"/><rect class="cls-8" x="763.88" y="799.17" width="55.14" height="189.45" rx="13"/><rect class="cls-9" x="865.69" y="769.96" width="55.14" height="218.67" rx="13"/><rect class="cls-10" x="971.93" y="728.35" width="55.14" height="260.28" rx="13"/><path class="cls-11" d="M1059.31,624l-76.51-.9a1.47,1.47,0,0,0-.81,2.7l24.29,15.43c-31.71,19-87.74,53.67-114.81,71.09L848,683.84c-1.79-2.1-3.94-3.1-7.91-4.25a19.83,19.83,0,0,0-8.46-.5c-5.31,1.36-152.87,93.45-156,97.36-8.8,10.91,4.16,29.43,18.17,25.95,3.86-1,104.18-63.24,142-87.78l41.66,27.26c4,4.9,10.21,8.06,16.65,6.51,3.93-.95,108.9-65.52,143-87.62l21,13.33a3,3,0,0,0,4.56-2.51V627.34A3.38,3.38,0,0,0,1059.31,624Z"/></g></g></svg>