<svg xmlns="http://www.w3.org/2000/svg" xmlns:xlink="http://www.w3.org/1999/xlink" viewBox="0 0 1691.6 1502.8"><defs><style>.cls-1{fill:#fff;stroke-miterlimit:10;stroke-width:70px;stroke:url(#linear-gradient);}.cls-2{fill:url(#linear-gradient-2);}.cls-3{fill:url(#linear-gradient-3);}.cls-4{fill:url(#linear-gradient-4);}.cls-5{fill:url(#linear-gradient-5);}.cls-6{fill:url(#linear-gradient-6);}</style><linearGradient id="linear-gradient" y1="751.4" x2="1691.6" y2="751.4" gradientUnits="userSpaceOnUse"><stop offset="0" stop-color="#f939cf"/><stop offset="1" stop-color="#cf1e68"/></linearGradient><linearGradient id="linear-gradient-2" x1="446.78" y1="759.79" x2="1273.1" y2="759.79" gradientUnits="userSpaceOnUse"><stop offset="0" stop-color="#484fee"/><stop offset="1" stop-color="#3ba7fd"/></linearGradient><linearGradient id="linear-gradient-3" x1="789.69" y1="784.09" x2="928.41" y2="784.09" xlink:href="#linear-gradient-2"/><linearGradient id="linear-gradient-4" x1="608.71" y1="785.1" x2="793.14" y2="785.1" xlink:href="#linear-gradient-2"/><linearGradient id="linear-gradient-5" x1="925.19" y1="785.08" x2="1109.3" y2="785.08" xlink:href="#linear-gradient-2"/><linearGradient id="linear-gradient-6" x1="1053.52" y1="1064.68" x2="1328.9" y2="1064.68" gradientUnits="userSpaceOnUse"><stop offset="0" stop-color="#ed4c4c"/><stop offset="1" stop-color="#f9ac39"/></linearGradient></defs><title>Asset 4</title><g id="Layer_2" data-name="Layer 2"><g id="Layer_1-2" data-name="Layer 1"><path class="cls-1" d="M1198.11,35H493.49a106.2,106.2,0,0,0-92,53.09L49.23,698.31a106.17,106.17,0,0,0,0,106.18l352.3,610.22a106.2,106.2,0,0,0,92,53.09h704.62a106.19,106.19,0,0,0,92-53.09l352.31-610.22a106.22,106.22,0,0,0,0-106.18L1290.07,88.09A106.19,106.19,0,0,0,1198.11,35Z"/><path class="cls-2" d="M473.89,391.28a49.9,49.9,0,0,0-24.18,25.23c-2.76,6.21-2.93,27.3-2.93,342.57,0,326.33.17,336.17,3.28,344.47,4.32,11.4,14.5,22.11,25.74,27.12l9,3.57H760.83l276,.34-1.36-3.73c-2.71-7.61-1.51-25.73,2.2-31.82l3.39-5.92-4.74-3.89a42.65,42.65,0,0,1-7.61-9l-2.88-4.91H505.45V561.73l353.85,1.84h353l1.84,167,.84,168.25,6.55,1.55c6.38,1.56,21.48,14.68,23.16,20,.5,2.07,1.68,2.07,6.38.52,3-1.21,8.9-2.07,12.92-2.07h7.22l1.84-249.28V421.34l-7.66-9.51c-5.87-10.53-18.13-20.9-28.33-24-4.66-1.38-107.28-1.9-379.54-2.82H484.43Zm556.62,61c9.67,4,11.4,8.3,11.4,27.13,0,14-.51,17.27-3.46,21.08-5,6.22-13.82,8.63-28,7.77-10.71-.87-12.78-1.56-17.63-6.4-5.18-5.36-5.36-5.7-5.36-21.59,0-18.14,1.9-23.67,10.2-27.64C1004.42,449.16,1022.91,449,1030.51,452.26Zm91,3.8c4.67,4.67,5.36,6.74,6.23,18.14,1.54,23.67-4.84,32.82-24.37,34q-19.7,1.29-26.94-7.77c-2.94-3.81-3.46-7.08-3.46-21.42,0-15.55.34-17.28,4.31-22.11,5.36-6.23,8.13-6.91,25.4-6.57C1115.16,450.71,1116.53,451.06,1121.54,456.06Zm80.17-3.8c8.29,3.46,11.23,10.37,11.23,25.74,0,22.64-4.67,28.68-23.15,30.07-24.53,2.07-32.13-4.84-32.13-28.51,0-16.76,2.76-23.67,10.88-27.13C1175.79,449.16,1194.28,449.16,1201.71,452.26Z"/><path class="cls-3" d="M892.31,625.89A30.5,30.5,0,0,0,881.77,634c-5,7.26-92.08,278.65-92.08,287,0,23.14,33.17,33.51,46.47,14.51,4.5-6.4,92.25-279.52,92.25-287.29,0-9-5.36-17.11-14.34-21.77C904.92,621.73,901.46,621.73,892.31,625.89Z"/><path class="cls-4" d="M716.26,717.79c-24.7,11.4-56.84,26.26-71.35,33-20.38,9.51-27.64,13.65-30.92,18.14-8.64,11.4-6.4,29,4.66,37.14,2.42,1.73,35.24,17.45,73.08,35.07,75.16,34.9,77.91,35.77,89.31,28,6.74-4.5,12.1-13.82,12.1-20.91,0-2.76-1.73-8.46-3.63-12.6-3.46-7.26-4.84-8.13-29.88-20.21-14.34-6.91-34.38-16.24-44.58-20.91-10.36-4.66-18.66-8.81-18.66-9.5.18-.51,17.8-9,39.39-18.83s41.81-19.53,44.91-21.43c6.4-3.8,12.44-14.16,12.44-21.42,0-7.95-7.08-19.7-13.82-23.33C768.43,694.3,763.94,695.5,716.26,717.79Z"/><path class="cls-5" d="M940.84,698.78c-17.44,10.2-20.9,30.41-7.26,42.5,3.11,2.6,24,13.48,46.65,23.84,22.46,10.54,40.94,19.52,40.94,20s-19,9.67-42.15,20.38c-25,11.58-44,21.43-46.64,24.19-15.72,16.41-4,43.36,18.84,43.36,4.49,0,25.57-9,75.67-32.14,38.17-17.79,71.34-33.86,73.42-35.93,12.78-11.4,11.74-32.65-1.9-41.64-2.25-1.37-34.38-16.76-71.35-34C958.47,697.4,949,694.12,940.84,698.78Z"/><path class="cls-6" d="M1171.16,931.31c-3.11,2.6-3.63,5.36-4,18.31l-.51,15.21-8.64,3.11c-4.67,1.73-9.84,3.63-11.4,4.32-2.07.86-5.19-1.73-11.93-9.68-11.57-14-14-15.2-21.24-10-13.3,9.84-25.4,21.43-25.4,24.7,0,1.73,3.8,7.78,8.29,13.14,4.67,5.35,9,10.53,9.51,11.74,1.73,2.76-10.71,23-14.17,23-1.55-.17-7.77-1-14-2.24-13-2.59-16.58-2.07-18.13,1.9-1.91,5-6,28.51-6,34.55,0,6.57,1.73,7.6,20.38,10.71,10.54,1.73,12.61,2.59,13.13,5.7.35,2.07,1.56,7.6,2.42,12.44,1.38,6.39,1.2,9-.17,9.85-1.21.69-7.09,4.14-13.31,7.77-14.68,8.64-15,11.06-3.45,30.58,4.83,8.29,10,15.54,11.57,16.07,2.76,1,7.77-1.21,22.11-9.51l8.64-5.17,9.5,8.46,9.33,8.47-5,14.68c-4,11.23-4.66,15.37-3.28,17.62,1,1.55,9.68,5.7,19.35,9.16,13.64,4.67,18.14,5.7,20.56,4.14,1.73-1,5.36-8.29,8.12-16.06l5-14.17,12.79.52,13,.52,5.36,14.68c4.49,11.92,6.22,14.86,9.33,15.2,4,.52,32.3-9,36.45-12.27,3.1-2.42,2.59-7.6-2.42-21.59l-4.66-12.44,6.74-6c12.26-10.7,12.6-10.7,26.26-2.76,6.73,4,13.3,7.08,14.68,7.08,3.46,0,6.56-4,16.06-20.38,9.68-17.1,9.68-17.1-6.73-27.13-6.23-3.8-11.75-7.43-12.44-7.94-.52-.7,0-6.57,1-13.3l2.07-12.27,12.26-1.9c23-3.63,22.81-3.63,18.49-27.13-1.73-9.5-3.63-18.14-4.5-19.51-1.38-2.25-12.61-1.73-28.68,1-6.22,1-6.22,1-12.26-9.84l-6-11.06,9.15-11.23c5.18-6.22,9.34-12.79,9.34-15,0-2.77-4.16-7.43-14.17-16.07-8-6.57-15.55-12.1-17.28-12.1-2.07,0-21.24,19.7-23.14,23.84,0,.17-5.7-1.73-12.44-4.14l-12.44-4.67V948.06c0-19.7,0-19.7-23-19.7C1178.07,928.38,1174.1,929.07,1171.16,931.31Zm37.45,95.36a42.31,42.31,0,0,1,25.05,38.7c0,11.75-2.76,19-10.37,27.81-19.34,21.94-53.55,18.48-68.58-7.08-6.39-10.88-6.73-28.51-.86-39.74,4.31-8.29,14.68-17.62,23-20.55C1185.64,1022.53,1200.67,1023,1208.61,1026.67Z"/></g></g></svg>