<svg xmlns="http://www.w3.org/2000/svg" xmlns:xlink="http://www.w3.org/1999/xlink" viewBox="0 0 1691.6 1502.8"><defs><style>.cls-1,.cls-4{fill:#fff;}.cls-1{stroke-miterlimit:10;stroke-width:70px;stroke:url(#linear-gradient);}.cls-2{fill:url(#linear-gradient-2);}.cls-3{fill:url(#linear-gradient-3);}</style><linearGradient id="linear-gradient" y1="751.4" x2="1691.6" y2="751.4" gradientUnits="userSpaceOnUse"><stop offset="0" stop-color="#f939cf"/><stop offset="1" stop-color="#cf1e68"/></linearGradient><linearGradient id="linear-gradient-2" x1="424.27" y1="627.88" x2="821.96" y2="1025.57" gradientUnits="userSpaceOnUse"><stop offset="0" stop-color="#ed4c4c"/><stop offset="1" stop-color="#f9ac39"/></linearGradient><linearGradient id="linear-gradient-3" x1="895.69" y1="455.69" x2="1320.96" y2="880.96" gradientUnits="userSpaceOnUse"><stop offset="0" stop-color="#484fee"/><stop offset="1" stop-color="#3ba7fd"/></linearGradient></defs><title>Asset 5</title><g id="Layer_2" data-name="Layer 2"><g id="Layer_1-2" data-name="Layer 1"><path class="cls-1" d="M1198.11,35H493.49a106.2,106.2,0,0,0-92,53.09L49.23,698.31a106.17,106.17,0,0,0,0,106.18l352.3,610.22a106.2,106.2,0,0,0,92,53.09h704.62a106.19,106.19,0,0,0,92-53.09l352.31-610.22a106.22,106.22,0,0,0,0-106.18L1290.07,88.09A106.19,106.19,0,0,0,1198.11,35Z"/><path class="cls-2" d="M650.63,539.06c-166.11,0-300.78,116.47-300.78,260.15,0,87.86,50.36,165.54,127.46,212.64L473.65,1130l50.29-45.45,35.69-37.28a344.11,344.11,0,0,0,91,12.13c166.12,0,300.78-116.47,300.78-260.16S816.75,539.06,650.63,539.06Z"/><path class="cls-3" d="M1084.88,404c-115.52,0-215.81,56.34-266.2,139,100.9,50.3,168.82,144.54,168.82,252.5a256.46,256.46,0,0,1-23.44,107,340,340,0,0,0,120.82,21.87c9.28,0,18.45-.39,27.52-1.1l28.76,42.32,42,53.17L1198.74,905c109.66-38.82,186.92-132,186.92-240.85C1385.66,520.48,1251,404,1084.88,404Z"/><path class="cls-4" d="M734.12,732.81c-22-18.78-54.84-15.41-75.08,5.48l-7.92,8.16-7.93-8.16c-20.2-20.89-53-24.26-75.07-5.48-25.27,21.57-26.6,60.27-4,83.65L642,896.85a12.62,12.62,0,0,0,18.23,0l77.85-80.39c22.65-23.38,21.32-62.08-3.94-83.65Z"/><path class="cls-4" d="M1065.07,622.3h-30.46a8.73,8.73,0,0,0-8.73,8.73v86.84a8.73,8.73,0,0,0,8.73,8.74h30.46a8.73,8.73,0,0,0,8.73-8.74V631A8.73,8.73,0,0,0,1065.07,622.3Zm100.82-44.19c0,15.31-9.36,23.89-12,34.12h36.7c12.05,0,21.43,10,21.49,21a26.14,26.14,0,0,1-7,17.75l0,0c3.55,8.42,3,20.21-3.36,28.67,3.14,9.34,0,20.82-5.91,27,1.55,6.35.81,11.75-2.21,16.1-7.37,10.58-25.62,10.73-41,10.73h-1c-17.42,0-31.68-6.35-43.13-11.45-5.75-2.55-13.26-5.72-19-5.83a4.37,4.37,0,0,1-4.28-4.37V634.73a4.44,4.44,0,0,1,1.34-3.14c14.25-14.11,20.39-29,32.09-40.76,5.35-5.35,7.29-13.43,9.17-21.25,1.6-6.68,5-20.85,12.24-20.85C1148.58,548.73,1165.89,551.61,1165.89,578.11Z"/></g></g></svg>